<?xml version="1.0" standalone="no"?>
<!DOCTYPE svg PUBLIC "-//W3C//DTD SVG 20010904//EN"
 "http://www.w3.org/TR/2001/REC-SVG-20010904/DTD/svg10.dtd">
<svg version="1.0" xmlns="http://www.w3.org/2000/svg"
 width="512.000000pt" height="512.000000pt" viewBox="0 0 512.000000 512.000000"
 preserveAspectRatio="xMidYMid meet">

<g transform="translate(0.000000,512.000000) scale(0.100000,-0.100000)"
fill="#000000" stroke="none">
<path d="M3018 4079 c-63 -9 -144 -40 -198 -76 -54 -36 -1777 -1762 -1810
-1814 -53 -81 -73 -153 -74 -264 -1 -108 14 -171 62 -255 28 -50 583 -618 622
-637 40 -19 2158 -18 2204 1 74 31 88 106 32 162 l-34 34 -593 0 -594 0 732
733 c710 711 732 734 767 808 71 150 71 299 -1 449 -33 70 -58 97 -367 408
-184 185 -357 351 -390 373 -97 65 -239 96 -358 78z m189 -220 c54 -20 83 -47
386 -348 375 -373 387 -389 387 -516 0 -133 9 -121 -605 -735 l-545 -545 -505
505 -505 505 562 562 c523 521 567 562 613 577 72 21 145 19 212 -5z m-692
-2459 l-170 -170 -320 0 -321 0 -265 268 c-293 294 -299 303 -299 424 0 117
14 136 287 410 l248 248 505 -505 505 -505 -170 -170z"/>
</g>
</svg>
